<?xml version="1.0" encoding="iso-8859-1"?>
<!-- Generator: Adobe Illustrator 16.0.0, SVG Export Plug-In . SVG Version: 6.00 Build 0)  -->
<!DOCTYPE svg PUBLIC "-//W3C//DTD SVG 1.1//EN" "http://www.w3.org/Graphics/SVG/1.1/DTD/svg11.dtd">
<svg version="1.1" id="Capa_1" xmlns="http://www.w3.org/2000/svg" xmlns:xlink="http://www.w3.org/1999/xlink" x="0px" y="0px"
	 width="47.424px" height="47.424px" viewBox="0 0 47.424 47.424" style="enable-background:new 0 0 47.424 47.424;"
	 xml:space="preserve">
<g>
	<g>
		<ellipse cx="23.71" cy="30.886" rx="2.257" ry="0.902"/>
		<path d="M47.293,16.272c-0.426-0.941-1.61-1.131-3.386-1.131c-1.054,0-2.417,0.078-3.972,0.188l-4.087-10.19
			c-0.381-0.947-1.3-1.568-2.32-1.568H13.891c-1.021,0-1.94,0.621-2.32,1.568L7.483,15.328c-1.56-0.11-2.918-0.188-3.973-0.188
			c-1.773,0-2.96,0.188-3.354,1.066c-0.232,0.434-0.204,0.949,0.076,1.422c0.629,1.053,2.937,2.34,6.336,3.452
			c-0.174,0.847-0.305,1.706-0.396,2.512c-1.376,1.158-2.259,2.937-2.259,4.925c0,2.795,1.741,5.172,4.147,6
			c3.033,5.678,9.026,9.336,15.674,9.336c6.652,0,12.655-3.668,15.688-9.36c2.37-0.851,4.079-3.207,4.079-5.976
			c0-1.957-0.854-3.712-2.194-4.869c-0.093-0.824-0.229-1.711-0.408-2.582c3.373-1.108,5.66-2.392,6.285-3.438
			C47.467,17.156,47.494,16.639,47.293,16.272z M11.34,14.352c0.064-0.828,0.796-1.464,1.612-1.379
			c0.069,0.006,0.149,0.012,0.221,0.018c0.198,0.015,0.414,0.029,0.617,0.045c1.108,0.084,2.28,0.162,3.519,0.23
			c0.366,0.02,0.731,0.037,1.107,0.055c1.68,0.076,3.441,0.125,5.283,0.111c1.852,0.012,3.616-0.039,5.295-0.113
			c0.37-0.018,0.729-0.034,1.092-0.055c1.246-0.066,2.426-0.146,3.542-0.229c0.203-0.016,0.419-0.03,0.617-0.047
			c0.07-0.004,0.148-0.01,0.221-0.016c0.812-0.062,1.548,0.551,1.612,1.379c0.008,0.104,0.006,0.205-0.009,0.303
			c-0.049,0.402-0.26,0.759-0.567,0.998c-0.226,0.174-0.498,0.287-0.803,0.312c-0.292,0.022-0.612,0.045-0.916,0.067
			c-0.019,0.002-0.037,0.003-0.058,0.005c-1.18,0.088-2.418,0.174-3.74,0.241c-1.782,0.094-3.683,0.156-5.669,0.156
			c-0.409,0-0.825,0-1.234,0c-1.979,0-3.872-0.063-5.653-0.156c-1.322-0.067-2.56-0.153-3.738-0.241
			c-0.018-0.002-0.035-0.003-0.053-0.005c-0.304-0.022-0.627-0.045-0.921-0.067c-0.304-0.022-0.577-0.138-0.802-0.312
			c-0.309-0.239-0.52-0.596-0.568-0.998C11.335,14.557,11.333,14.454,11.34,14.352z M37.479,30.831c-0.261,0-0.51-0.062-0.737-0.164
			c-1.841,5.34-6.962,9.188-13.004,9.188c-6.047,0-11.174-3.854-13.008-9.205c-0.242,0.117-0.51,0.184-0.789,0.184
			c-1.123,0-2.023-1.035-2.023-2.313c0-1.274,0.898-2.312,2.021-2.313c0.309,0.527,0.662,1.039,1.064,1.523
			c-0.375-1.289-0.58-2.615-0.58-3.93c0-0.566,0.051-1.105,0.122-1.634c2.086,0.478,4.394,0.87,6.863,1.125
			c-1.064,0.09-1.905,0.976-1.905,2.062c0,1.146,0.934,2.08,2.079,2.08s2.079-0.934,2.079-2.08c0-0.955-0.651-1.754-1.53-1.996
			c1.748,0.16,3.56,0.256,5.423,0.256h0.314c1.866,0,3.676-0.098,5.424-0.256c-0.88,0.24-1.531,1.041-1.531,1.996
			c0,1.146,0.934,2.08,2.079,2.08c1.145,0,2.079-0.934,2.079-2.08c0-1.088-0.842-1.973-1.907-2.062
			c2.472-0.255,4.779-0.647,6.865-1.125c0.07,0.526,0.122,1.067,0.122,1.634c0,1.313-0.205,2.641-0.58,3.93
			c0.401-0.484,0.757-0.996,1.063-1.523c1.121,0.002,2.021,1.037,2.021,2.313S38.603,30.831,37.479,30.831z"/>
	</g>
</g>
<g>
</g>
<g>
</g>
<g>
</g>
<g>
</g>
<g>
</g>
<g>
</g>
<g>
</g>
<g>
</g>
<g>
</g>
<g>
</g>
<g>
</g>
<g>
</g>
<g>
</g>
<g>
</g>
<g>
</g>
</svg>
